HIERARCHY
ROOT Hips
{
	OFFSET 0.000000 0.000000 0.000000
	CHANNELS 6 Xposition Yposition Zposition Xrotation Yrotation Zrotation
	JOINT LeftUpLeg_virtual
	{
		OFFSET 0.000000 0.000000 0.000000
		CHANNELS 3 Xrotation Yrotation Zrotation
		JOINT LeftUpLeg
		{
			OFFSET 11.394100 -6.187798 -0.413800
			CHANNELS 3 Xrotation Yrotation Zrotation
			JOINT LeftLeg
			{
				OFFSET 0.430247 -32.302673 3.732800
				CHANNELS 3 Xrotation Yrotation Zrotation
				JOINT LeftFoot
				{
					OFFSET -0.430247 -48.264931 -6.423300
					CHANNELS 3 Xrotation Yrotation Zrotation
					JOINT LeftToeBase
					{
						OFFSET 4.230900 -16.068199 23.438400
						CHANNELS 3 Xrotation Yrotation Zrotation
						JOINT LeftToe_End
						{
							OFFSET 4.510700 0.695400 19.974600
							CHANNELS 3 Xrotation Yrotation Zrotation
							End Site
							{
								OFFSET 0 0 0
							}
						}
					}
				}
			}
		}
	}
	JOINT RightUpLeg_virtual
	{
		OFFSET 0.000000 0.000000 0.000000
		CHANNELS 3 Xrotation Yrotation Zrotation
		JOINT RightUpLeg
		{
			OFFSET -11.333700 -6.187798 -0.413800
			CHANNELS 3 Xrotation Yrotation Zrotation
			JOINT RightLeg
			{
				OFFSET -0.430392 -32.302628 3.733000
				CHANNELS 3 Xrotation Yrotation Zrotation
				JOINT RightFoot
				{
					OFFSET 0.430392 -48.264973 -6.423500
					CHANNELS 3 Xrotation Yrotation Zrotation
					JOINT RightToeBase
					{
						OFFSET -4.230900 -16.068199 23.438400
						CHANNELS 3 Xrotation Yrotation Zrotation
						JOINT RightToe_End
						{
							OFFSET -4.510700 0.695400 19.974600
							CHANNELS 3 Xrotation Yrotation Zrotation
							End Site
							{
								OFFSET 0 0 0
							}
						}
					}
				}
			}
		}
	}
	JOINT Spine_virtual
	{
		OFFSET 0.000000 0.000000 0.000000
		CHANNELS 3 Xrotation Yrotation Zrotation
		JOINT Spine
		{
			OFFSET -0.002400 12.777504 0.315300
			CHANNELS 3 Xrotation Yrotation Zrotation
			JOINT Spine1
			{
				OFFSET -0.002067 5.816869 0.032633
				CHANNELS 3 Xrotation Yrotation Zrotation
				JOINT Spine1_split
				{
					OFFSET -0.002067 5.816869 0.032633
					CHANNELS 3 Xrotation Yrotation Zrotation
					JOINT Spine2
					{
						OFFSET -0.002067 5.816869 0.032633
						CHANNELS 3 Xrotation Yrotation Zrotation
						JOINT Neck_virtual
						{
							OFFSET 0.000000 0.000000 0.000000
							CHANNELS 3 Xrotation Yrotation Zrotation
							JOINT Neck
							{
								OFFSET -0.003700 21.199493 -0.826900
								CHANNELS 3 Xrotation Yrotation Zrotation
								JOINT Head
								{
									OFFSET 0.000000 20.442200 4.834800
									CHANNELS 3 Xrotation Yrotation Zrotation
									JOINT HeadTop_End
									{
										OFFSET 0.000000 34.668396 4.968400
										CHANNELS 3 Xrotation Yrotation Zrotation
										End Site
										{
											OFFSET 0 0 0
										}
									}
								}
							}
						}
						JOINT LeftShoulder_virtual
						{
							OFFSET 0.000000 0.000000 0.000000
							CHANNELS 3 Xrotation Yrotation Zrotation
							JOINT LeftShoulder
							{
								OFFSET 3.288150 8.794197 -1.372250
								CHANNELS 3 Xrotation Yrotation Zrotation
								JOINT LeftShoulder_split
								{
									OFFSET 3.288150 8.794197 -1.372250
									CHANNELS 3 Xrotation Yrotation Zrotation
									JOINT LeftArm
									{
										OFFSET 11.953299 -2.279007 -0.146200
										CHANNELS 3 Xrotation Yrotation Zrotation
										JOINT LeftForeArm
										{
											OFFSET 18.448900 0.000000 0.000000
											CHANNELS 3 Xrotation Yrotation Zrotation
											JOINT LeftHand
											{
												OFFSET 29.527798 0.000000 0.000000
												CHANNELS 3 Xrotation Yrotation Zrotation
												End Site
												{
													OFFSET 0 0 0
												}
											}
										}
									}
								}
							}
						}
						JOINT RightShoulder_virtual
						{
							OFFSET 0.000000 0.000000 0.000000
							CHANNELS 3 Xrotation Yrotation Zrotation
							JOINT RightShoulder
							{
								OFFSET -3.249400 8.794197 -1.372250
								CHANNELS 3 Xrotation Yrotation Zrotation
								JOINT RightShoulder_split
								{
									OFFSET -3.249400 8.794197 -1.372250
									CHANNELS 3 Xrotation Yrotation Zrotation
									JOINT RightArm
									{
										OFFSET -11.953299 -2.279007 -0.146200
										CHANNELS 3 Xrotation Yrotation Zrotation
										JOINT RightForeArm
										{
											OFFSET -18.448900 0.000000 0.000000
											CHANNELS 3 Xrotation Yrotation Zrotation
											JOINT RightHand
											{
												OFFSET -29.527802 0.000000 0.000000
												CHANNELS 3 Xrotation Yrotation Zrotation
												End Site
												{
													OFFSET 0 0 0
												}
											}
										}
									}
								}
							}
						}
					}
				}
			}
		}
	}
}
MOTION
Frames: 7
Frame Time: 0.03333333
-4.463948 91.539978 -4.273670 0.000000 0.000000 0.000000 -3.138630 -6.451235 5.164725 -69.287331 4.570821 8.089189 55.214867 -0.780972 -5.048498 5.330374 -0.006458 -1.165447 -1.242527 -0.000001 -0.000001 0.000000 0.000000 0.000000 -3.138630 -6.451235 5.164725 -27.155900 -6.318349 -7.568382 52.899002 7.567982 3.489045 -22.594336 2.713253 -8.316921 -5.454417 -0.000000 -0.000003 0.000000 0.000000 0.000000 -3.138630 -6.451235 5.164725 13.731645 0.284974 -4.230223 2.722912 0.133859 -0.943517 0.000000 0.000000 0.000000 0.000000 0.000000 0.000000 2.720025 0.135223 -0.952573 2.743908 0.369061 0.041968 21.918277 4.192716 -0.129341 0.000000 0.000000 0.000000 2.720025 0.135223 -0.952573 0.619249 -1.200853 -10.994811 0.000000 0.000000 0.000000 17.248869 -24.148532 -54.371574 -0.000005 -28.855370 -0.000008 0.000000 0.000000 0.000000 2.720025 0.135223 -0.952573 0.265365 6.336858 17.304037 0.000000 0.000000 0.000000 14.561909 17.232537 47.386053 0.000009 42.148995 0.000008 0.000000 0.000000 0.000000 
-4.597654 91.187492 -4.573528 0.000000 0.000000 0.000000 -2.850594 -6.461202 5.086016 -67.030882 4.001620 6.834631 46.204232 -1.763029 -4.405132 10.719751 0.149878 1.533255 -0.917273 0.000001 -0.000001 0.000000 0.000000 0.000000 -2.850594 -6.461202 5.086016 -28.249288 -6.426364 -7.397527 53.803644 7.681612 3.464714 -22.661801 2.700031 -8.572487 -5.451048 0.000004 -0.000001 0.000000 0.000000 0.000000 -2.850594 -6.461202 5.086016 13.967118 0.464111 -3.868854 2.847391 0.187924 -0.917954 0.000000 0.000000 0.000000 0.000000 0.000000 0.000000 2.844045 0.192474 -0.929923 2.777816 0.367202 -0.028368 21.720485 4.314693 -0.576000 0.000000 0.000000 0.000000 2.844045 0.192474 -0.929923 0.640724 -1.333958 -11.005096 0.000000 0.000000 0.000000 17.374237 -24.472984 -55.481630 -0.000000 -28.210935 -0.000001 0.000000 0.000000 0.000000 2.844045 0.192474 -0.929923 0.180821 7.065461 17.444805 0.000000 0.000000 0.000000 15.301581 17.417505 45.815031 0.000007 44.069518 0.000013 0.000000 0.000000 0.000000 
-4.752316 91.041451 -5.040688 0.000000 0.000000 0.000000 -2.217193 -6.608457 4.979547 -65.459017 3.237819 6.439816 40.393090 -1.529633 -3.682592 13.584699 0.075609 1.268673 0.141997 0.000000 0.000000 0.000000 0.000000 0.000000 -2.217193 -6.608457 4.979547 -29.527939 -6.617722 -7.107430 54.150037 7.951407 3.450046 -22.306045 2.662758 -8.917620 -5.440134 0.000001 -0.000002 0.000000 0.000000 0.000000 -2.217193 -6.608457 4.979547 14.207921 0.620891 -3.623173 2.948585 0.244173 -0.882540 0.000000 0.000000 0.000000 0.000000 0.000000 0.000000 2.944868 0.250126 -0.897077 2.784119 0.379460 -0.086376 21.333135 4.511396 -0.839697 0.000000 0.000000 0.000000 2.944868 0.250126 -0.897077 0.660197 -1.456144 -10.992151 0.000000 0.000000 0.000000 17.052643 -24.459751 -56.653294 -0.000008 -27.764821 -0.000001 0.000000 0.000000 0.000000 2.944868 0.250126 -0.897077 0.106660 7.709673 17.533394 0.000000 0.000000 0.000000 15.764227 17.647324 44.412967 0.000000 45.711813 0.000000 0.000000 0.000000 0.000000 
-4.981724 91.391144 -5.730671 0.000000 0.000000 0.000000 -1.072665 -6.387630 5.149558 -64.972325 3.049446 6.121820 38.599769 -1.116306 -3.470268 12.090535 0.006585 1.088979 1.018062 0.000000 0.000001 0.000000 0.000000 0.000000 -1.072665 -6.387630 5.149558 -30.776324 -6.789923 -6.871610 53.304750 7.850812 3.442289 -21.357962 2.558104 -9.116755 -5.438577 0.000001 -0.000003 0.000000 0.000000 0.000000 -1.072665 -6.387630 5.149558 14.450508 0.538115 -3.752334 3.017412 0.242815 -0.880788 0.000000 0.000000 0.000000 0.000000 0.000000 0.000000 3.013749 0.247731 -0.895309 2.749064 0.385450 -0.089713 20.651195 4.516996 -0.703625 0.000000 0.000000 0.000000 3.013749 0.247731 -0.895309 0.672240 -1.833722 -10.988910 0.000000 0.000000 0.000000 16.841662 -24.812064 -57.023081 -0.000012 -27.474788 -0.000002 0.000000 0.000000 0.000000 3.013749 0.247731 -0.895309 0.055480 8.066088 17.607943 0.000000 0.000000 0.000000 15.497262 17.648475 43.807689 -0.000003 46.719556 0.000021 0.000000 0.000000 0.000000 
-5.258412 92.314178 -6.554520 0.000000 0.000000 0.000000 0.537673 -5.618316 5.421729 -65.352384 3.513680 5.555447 40.782995 -1.889377 -3.858701 7.617575 0.011236 1.945279 -0.489578 -0.000001 0.000001 0.000000 0.000000 0.000000 0.537673 -5.618316 5.421729 -31.619876 -7.011002 -6.568817 50.912544 7.210347 3.439209 -19.804791 2.376184 -9.064246 -5.441773 0.000001 -0.000002 0.000000 0.000000 0.000000 0.537673 -5.618316 5.421729 14.630001 0.106804 -3.976237 3.046272 0.131666 -0.892781 0.000000 0.000000 0.000000 0.000000 0.000000 0.000000 3.043617 0.134690 -0.903074 2.694360 0.390607 -0.039642 19.870875 4.387606 -0.369024 0.000000 0.000000 0.000000 3.043617 0.134690 -0.903074 0.676137 -2.460477 -11.017392 0.000000 0.000000 0.000000 17.060216 -25.802201 -56.463675 0.000005 -27.297753 -0.000018 0.000000 0.000000 0.000000 3.043617 0.134690 -0.903074 0.026301 8.085971 17.731991 0.000000 0.000000 0.000000 14.745644 17.402627 43.964439 0.000009 47.081300 0.000008 0.000000 0.000000 0.000000 
-5.533180 93.569847 -7.430641 0.000000 0.000000 0.000000 2.430766 -4.578616 5.463254 -65.182920 4.190228 5.154406 44.361498 -3.531242 -4.445419 2.181535 -0.035769 2.431382 -2.506815 0.000001 -0.000001 0.000000 0.000000 0.000000 2.430766 -4.578616 5.463254 -32.022102 -7.366834 -6.000720 47.333788 6.313889 3.439153 -17.798377 2.144124 -8.893738 -5.443049 0.000009 -0.000001 0.000000 0.000000 0.000000 2.430766 -4.578616 5.463254 14.618505 -0.587986 -3.894110 3.017769 -0.074675 -0.864028 0.000000 0.000000 0.000000 0.000000 0.000000 0.000000 3.017127 -0.072500 -0.866694 2.670411 0.412420 0.030757 19.368038 4.386082 -0.218333 0.000000 0.000000 0.000000 3.017127 -0.072500 -0.866694 0.676917 -3.038802 -11.061893 0.000000 0.000000 0.000000 17.762028 -27.234507 -55.400969 0.000005 -27.299257 -0.000005 0.000000 0.000000 0.000000 3.017127 -0.072500 -0.866694 0.005698 7.919823 17.964449 0.000000 0.000000 0.000000 14.182343 16.898931 44.430326 0.000007 47.134490 -0.000025 0.000000 0.000000 0.000000 
-5.754631 94.655830 -8.237003 0.000000 0.000000 0.000000 4.412477 -3.707228 5.193642 -64.062291 4.607325 5.136969 47.587540 -5.342384 -4.770751 -0.348691 -0.031569 1.417711 -3.843400 0.000000 0.000000 0.000000 0.000000 0.000000 4.412477 -3.707228 5.193642 -32.503822 -7.803837 -5.223741 43.849876 5.596318 3.447448 -15.843672 1.928701 -8.799332 -5.442318 0.000001 -0.000001 0.000000 0.000000 0.000000 4.412477 -3.707228 5.193642 14.353166 -1.298249 -3.421307 2.932386 -0.305213 -0.785740 0.000000 0.000000 0.000000 0.000000 0.000000 0.000000 2.934064 -0.302459 -0.780204 2.702221 0.455338 0.081927 19.223687 4.613564 -0.356475 0.000000 0.000000 0.000000 2.934064 -0.302459 -0.780204 0.680113 -3.313451 -11.104443 0.000000 0.000000 0.000000 18.764300 -28.612871 -54.336501 0.000004 -27.677755 0.000012 0.000000 0.000000 0.000000 2.934064 -0.302459 -0.780204 -0.013275 7.718484 18.287920 0.000000 0.000000 0.000000 14.244996 16.087184 44.926539 0.000012 47.192133 -0.000020 0.000000 0.000000 0.000000 
